<svg xmlns="http://www.w3.org/2000/svg" viewBox="0 0 500 650">
<style>
  .departamento, [class*="region-"] {
    transition: fill 0.3s ease, stroke 0.3s ease, stroke-width 0.3s ease, filter 0.3s ease;
    cursor: pointer;
    stroke: #ffffff;
    stroke-width: 1.5;
    stroke-linejoin: round;
    stroke-linecap: round;
    outline: none;
  }
  .region-costa { fill: #F5D6A8; }
  .region-sierra { fill: #A8C9A0; }
  .region-selva { fill: #9DC89A; }
  [class*="region-"]:hover { filter: brightness(1.12) saturate(1.3); }
  [class*="region-"].active {
    stroke: #1a6b3c;
    stroke-width: 2.5;
    filter: brightness(1.15) saturate(1.4);
  }
</style>
<path id="dep-amazonas" class="region-selva departamento" data-name="Amazonas" d="M 133.61,244.70 L 130.50,245.12 L 129.27,244.63 L 127.59,245.48 L 125.02,244.91 L 124.50,239.70 L 122.92,234.57 L 121.16,233.38 L 120.14,229.30 L 118.21,226.87 L 115.89,224.68 L 113.08,223.14 L 113.02,222.01 L 109.35,216.63 L 106.47,213.32 L 103.95,213.50 L 103.13,211.45 L 101.42,209.25 L 99.57,204.85 L 100.58,200.52 L 103.40,197.01 L 105.05,193.21 L 106.60,191.64 L 106.49,189.70 L 103.41,186.56 L 100.56,185.07 L 99.67,181.99 L 99.98,179.33 L 101.51,178.04 L 102.87,175.69 L 101.93,174.35 L 103.55,167.71 L 101.98,166.42 L 102.22,163.66 L 99.79,162.46 L 101.40,161.13 L 101.39,159.17 L 102.23,158.14 L 102.35,155.06 L 101.70,152.22 L 102.92,150.88 L 104.24,145.30 L 105.69,143.14 L 104.78,140.31 L 106.27,138.34 L 107.55,138.21 L 107.98,135.58 L 110.22,133.25 L 110.63,131.24 L 109.90,129.68 L 110.69,128.29 L 111.15,124.90 L 111.97,124.02 L 112.17,121.90 L 113.62,119.29 L 116.21,119.54 L 117.33,123.27 L 119.67,122.30 L 118.89,117.73 L 126.74,108.59 L 127.41,106.65 L 128.87,105.72 L 131.84,104.92 L 132.91,111.98 L 132.98,119.78 L 133.55,121.56 L 138.68,127.69 L 138.73,130.27 L 137.43,132.78 L 140.38,136.07 L 141.37,138.55 L 141.50,141.55 L 141.08,144.40 L 139.80,149.37 L 140.52,153.63 L 139.79,157.23 L 137.31,158.76 L 136.72,162.66 L 133.15,165.75 L 132.33,167.35 L 132.37,170.40 L 133.57,172.49 L 133.60,173.98 L 131.26,176.79 L 131.35,178.55 L 133.06,179.09 L 135.86,181.43 L 134.30,183.15 L 135.96,185.08 L 136.35,187.57 L 135.86,190.12 L 134.18,189.96 L 133.27,191.07 L 133.37,194.61 L 134.40,196.94 L 133.08,199.75 L 133.43,204.48 L 136.50,205.88 L 137.43,208.54 L 136.81,210.12 L 139.52,211.14 L 141.65,213.04 L 143.62,210.84 L 145.20,212.93 L 146.59,212.19 L 148.34,214.83 L 150.66,215.79 L 152.75,215.97 L 153.57,218.93 L 155.97,221.44 L 154.58,224.20 L 152.81,224.20 L 151.43,222.32 L 150.48,222.44 L 150.96,225.09 L 149.06,227.26 L 148.74,229.16 L 146.65,231.99 L 145.14,232.08 L 147.08,235.32 L 141.28,234.60 L 138.85,232.32 L 135.95,234.65 L 134.09,234.18 L 134.05,237.23 L 133.51,239.19 L 134.88,242.20 L 133.61,244.70 Z" />
<path id="dep-Áncash" class="region-costa departamento" data-name="Áncash" d="M 149.38,299.71 L 150.39,301.79 L 150.18,303.32 L 151.41,303.87 L 151.92,305.76 L 154.83,312.32 L 156.01,313.25 L 156.79,315.17 L 159.39,316.19 L 161.42,318.43 L 168.26,321.00 L 170.22,323.56 L 170.51,325.23 L 169.38,328.94 L 167.34,327.67 L 166.35,325.41 L 163.03,330.22 L 162.42,332.72 L 162.93,334.72 L 160.88,337.42 L 158.98,338.96 L 161.20,342.54 L 161.77,341.21 L 164.24,343.29 L 164.46,344.87 L 167.37,350.00 L 166.94,350.98 L 167.56,354.33 L 163.73,355.56 L 164.06,360.98 L 161.95,362.08 L 160.47,361.34 L 159.83,362.86 L 158.16,363.23 L 156.75,365.52 L 154.48,367.68 L 153.89,370.75 L 151.72,370.51 L 149.62,371.30 L 146.60,374.59 L 145.88,377.00 L 143.04,377.57 L 140.10,376.95 L 139.77,374.08 L 140.12,371.86 L 137.83,372.30 L 137.71,369.88 L 134.40,371.14 L 136.29,366.51 L 139.37,364.72 L 135.99,362.63 L 133.82,362.67 L 133.56,366.47 L 132.28,368.33 L 133.13,369.36 L 133.17,371.44 L 130.96,371.29 L 129.06,372.85 L 128.28,370.47 L 126.41,368.66 L 124.62,364.52 L 123.05,363.51 L 121.35,358.38 L 119.16,356.52 L 118.74,352.96 L 116.33,346.91 L 116.93,344.17 L 115.29,342.78 L 113.51,339.47 L 111.97,338.02 L 111.86,335.73 L 110.80,332.80 L 111.42,331.87 L 109.72,330.67 L 109.81,328.21 L 108.03,327.86 L 106.82,326.01 L 107.61,323.36 L 106.85,322.55 L 104.56,322.24 L 104.95,320.30 L 102.69,318.96 L 101.97,315.14 L 103.87,314.32 L 103.99,311.25 L 104.81,308.93 L 106.50,307.54 L 108.99,306.97 L 112.33,304.74 L 116.21,304.21 L 118.09,302.17 L 117.25,300.65 L 118.80,298.77 L 120.02,296.11 L 120.09,294.03 L 120.86,291.98 L 124.33,288.96 L 127.39,288.00 L 128.65,283.75 L 131.77,283.46 L 135.02,283.66 L 137.60,282.85 L 137.98,284.81 L 139.08,286.52 L 140.81,287.89 L 144.33,292.87 L 145.04,295.83 L 146.42,298.02 L 149.38,299.71 Z" />
<path id="dep-Apurímac" class="region-sierra departamento" data-name="Apurímac" d="M 322.44,515.13 L 318.67,516.02 L 316.26,515.34 L 313.40,515.64 L 311.08,514.74 L 309.69,516.58 L 309.04,518.59 L 308.37,516.86 L 305.17,515.88 L 303.24,514.29 L 299.77,516.16 L 298.10,515.59 L 296.77,516.69 L 294.42,516.80 L 293.57,517.60 L 291.04,516.63 L 289.63,517.05 L 289.12,518.79 L 286.25,521.50 L 283.38,519.15 L 283.18,516.04 L 285.35,514.73 L 284.52,512.31 L 285.30,511.70 L 284.46,509.16 L 283.25,508.03 L 285.28,501.31 L 281.75,495.01 L 281.49,492.81 L 280.13,489.43 L 279.32,488.95 L 278.65,486.53 L 276.86,483.58 L 279.66,482.58 L 277.01,479.79 L 275.29,479.28 L 274.49,474.65 L 273.32,470.72 L 274.72,467.43 L 274.18,466.77 L 275.11,463.78 L 276.56,462.75 L 277.63,466.20 L 280.64,467.28 L 283.15,468.77 L 286.40,471.91 L 289.17,472.38 L 291.17,472.03 L 295.22,473.50 L 296.00,471.48 L 299.88,472.52 L 303.03,471.75 L 304.59,470.47 L 307.35,470.46 L 307.63,471.37 L 310.95,471.73 L 312.66,473.72 L 315.83,474.79 L 316.54,475.81 L 319.18,476.13 L 324.24,478.05 L 324.94,479.93 L 328.60,481.51 L 331.04,481.54 L 334.45,484.27 L 336.51,488.61 L 337.30,489.44 L 337.44,492.33 L 336.86,494.58 L 337.26,496.42 L 335.89,498.00 L 336.38,499.00 L 332.60,502.90 L 330.73,504.14 L 330.37,506.05 L 327.96,507.38 L 326.51,507.21 L 325.25,508.82 L 324.02,508.72 L 321.32,511.27 L 322.80,513.18 L 322.44,515.13 Z" />
<path id="dep-arequipa" class="region-costa departamento" data-name="Arequipa" d="M 229.52,542.59 L 230.37,542.29 L 232.00,538.63 L 233.28,537.55 L 234.29,534.27 L 236.76,532.34 L 238.72,531.93 L 240.63,530.47 L 242.19,531.79 L 246.22,532.24 L 248.12,531.94 L 251.73,533.21 L 253.62,533.40 L 254.00,535.87 L 253.23,537.87 L 256.80,539.64 L 256.13,540.76 L 257.14,543.84 L 260.94,544.30 L 262.45,542.09 L 264.48,540.80 L 266.53,543.05 L 264.82,547.81 L 265.41,549.16 L 269.79,544.26 L 272.56,542.00 L 272.33,539.50 L 272.86,538.49 L 274.71,538.42 L 276.47,540.56 L 279.13,542.40 L 280.30,541.65 L 283.66,541.38 L 287.75,539.54 L 289.57,541.04 L 293.05,540.81 L 293.40,537.39 L 294.79,537.08 L 297.34,537.80 L 299.40,534.86 L 299.62,533.57 L 301.87,531.75 L 303.42,529.28 L 304.05,525.48 L 302.45,523.52 L 303.47,520.53 L 305.62,518.78 L 309.04,518.59 L 309.69,516.58 L 311.08,514.74 L 313.40,515.64 L 316.26,515.34 L 318.67,516.02 L 322.44,515.13 L 321.92,516.93 L 322.47,519.11 L 324.77,520.95 L 328.02,521.19 L 330.28,520.13 L 334.12,519.22 L 334.69,521.08 L 337.60,522.64 L 338.06,520.42 L 337.79,516.29 L 339.72,514.13 L 341.39,515.97 L 340.76,517.47 L 342.00,519.64 L 343.21,519.68 L 344.57,523.10 L 346.51,523.37 L 348.36,524.91 L 347.59,527.40 L 346.32,529.40 L 351.14,530.26 L 352.28,531.92 L 354.01,531.44 L 354.62,529.18 L 356.72,529.82 L 357.65,529.10 L 356.89,526.19 L 359.61,526.96 L 361.69,529.81 L 363.73,531.25 L 365.71,529.73 L 367.61,529.55 L 369.87,531.26 L 368.56,532.74 L 369.27,534.33 L 367.79,535.65 L 369.09,537.18 L 369.60,539.81 L 368.77,541.94 L 372.44,542.81 L 373.61,541.26 L 375.22,543.01 L 374.46,544.21 L 374.71,546.84 L 377.93,549.65 L 378.57,552.05 L 377.28,554.60 L 380.60,559.47 L 381.42,561.41 L 381.69,564.06 L 380.12,564.14 L 379.46,565.49 L 380.22,570.65 L 376.54,573.00 L 375.49,573.05 L 375.88,576.64 L 376.68,578.36 L 375.27,579.58 L 372.20,578.27 L 370.02,578.85 L 366.23,578.57 L 366.26,581.49 L 365.03,583.80 L 364.68,587.69 L 363.30,588.59 L 361.81,587.45 L 359.80,588.18 L 359.13,590.43 L 359.26,592.56 L 361.26,598.04 L 362.88,598.06 L 364.21,600.59 L 359.25,606.14 L 357.47,607.31 L 350.34,604.75 L 345.99,603.77 L 344.37,602.88 L 342.05,600.37 L 337.89,597.91 L 336.57,598.04 L 331.73,593.87 L 328.99,592.91 L 328.74,591.23 L 326.45,589.01 L 323.31,586.90 L 319.89,585.99 L 313.96,585.09 L 311.72,584.26 L 306.56,580.45 L 304.04,580.34 L 301.67,579.36 L 297.89,576.92 L 295.54,576.66 L 292.69,575.50 L 292.35,574.06 L 287.46,572.05 L 281.43,570.25 L 278.59,569.92 L 277.58,569.02 L 272.52,566.92 L 271.81,566.00 L 266.68,562.80 L 265.91,560.56 L 261.89,558.68 L 259.23,557.90 L 258.03,556.56 L 256.15,556.85 L 253.81,556.16 L 252.17,554.94 L 251.33,552.55 L 244.24,549.96 L 241.08,548.12 L 238.19,546.96 L 235.36,545.02 L 231.90,543.19 L 229.52,542.59 Z M 368.37,575.69 L 371.31,576.52 L 371.56,574.49 L 367.95,574.70 L 368.37,575.69 Z" />
<path id="dep-ayacucho" class="region-sierra departamento" data-name="Ayacucho" d="M 255.50,427.73 L 256.36,429.69 L 258.20,430.02 L 261.16,432.67 L 263.52,433.34 L 264.34,431.63 L 268.56,430.14 L 269.08,433.44 L 271.90,435.87 L 274.04,440.28 L 274.96,443.16 L 276.85,444.73 L 277.67,444.13 L 281.23,448.50 L 282.47,451.29 L 284.87,453.22 L 284.94,456.43 L 286.50,457.89 L 287.54,460.55 L 288.50,461.41 L 291.13,467.24 L 293.31,469.83 L 296.00,471.48 L 295.22,473.50 L 291.17,472.03 L 289.17,472.38 L 286.40,471.91 L 283.15,468.77 L 280.64,467.28 L 277.63,466.20 L 276.56,462.75 L 275.11,463.78 L 274.18,466.77 L 274.72,467.43 L 273.32,470.72 L 274.49,474.65 L 275.29,479.28 L 277.01,479.79 L 279.66,482.58 L 276.86,483.58 L 278.65,486.53 L 279.32,488.95 L 280.13,489.43 L 281.49,492.81 L 281.75,495.01 L 285.28,501.31 L 283.25,508.03 L 284.46,509.16 L 285.30,511.70 L 284.52,512.31 L 285.35,514.73 L 283.18,516.04 L 283.38,519.15 L 286.25,521.50 L 289.12,518.79 L 289.63,517.05 L 291.04,516.63 L 293.57,517.60 L 294.42,516.80 L 296.77,516.69 L 298.10,515.59 L 299.77,516.16 L 303.24,514.29 L 305.17,515.88 L 308.37,516.86 L 309.04,518.59 L 305.62,518.78 L 303.47,520.53 L 302.45,523.52 L 304.05,525.48 L 303.42,529.28 L 301.87,531.75 L 299.62,533.57 L 299.40,534.86 L 297.34,537.80 L 294.79,537.08 L 293.40,537.39 L 293.05,540.81 L 289.57,541.04 L 287.75,539.54 L 283.66,541.38 L 280.30,541.65 L 279.13,542.40 L 276.47,540.56 L 274.71,538.42 L 272.86,538.49 L 272.33,539.50 L 272.56,542.00 L 269.79,544.26 L 265.41,549.16 L 264.82,547.81 L 266.53,543.05 L 264.48,540.80 L 262.45,542.09 L 260.94,544.30 L 257.14,543.84 L 256.13,540.76 L 256.80,539.64 L 253.23,537.87 L 254.00,535.87 L 253.62,533.40 L 251.73,533.21 L 248.12,531.94 L 246.22,532.24 L 242.19,531.79 L 240.63,530.47 L 244.13,528.60 L 244.16,523.79 L 243.08,521.34 L 241.21,521.53 L 240.86,518.99 L 239.19,518.32 L 237.65,516.77 L 237.40,513.39 L 235.88,511.04 L 233.61,513.20 L 230.00,513.77 L 229.68,510.41 L 228.64,508.94 L 228.53,507.11 L 227.21,506.46 L 228.79,502.87 L 230.72,501.66 L 228.90,499.45 L 230.03,496.45 L 231.10,494.42 L 234.20,495.22 L 237.81,494.47 L 240.35,495.05 L 239.86,492.49 L 240.43,491.14 L 239.79,489.39 L 240.70,485.97 L 240.18,485.00 L 240.91,482.54 L 239.96,479.53 L 240.31,478.07 L 239.30,475.99 L 237.07,473.68 L 235.64,473.15 L 235.80,470.65 L 236.83,469.40 L 240.58,468.75 L 242.88,469.53 L 244.83,466.39 L 247.46,463.25 L 248.41,463.76 L 251.48,463.43 L 252.84,462.36 L 253.29,459.19 L 254.06,457.79 L 255.50,457.66 L 256.77,458.85 L 258.21,457.65 L 257.27,454.47 L 256.15,454.24 L 256.08,451.00 L 257.41,450.60 L 257.53,448.25 L 255.40,446.65 L 256.16,445.56 L 255.69,443.91 L 253.03,438.86 L 252.77,437.26 L 249.87,437.43 L 247.10,433.31 L 248.14,431.72 L 254.11,431.06 L 253.97,428.39 L 255.50,427.73 Z M 277.14,536.37 L 277.18,537.85 L 279.11,538.77 L 280.71,537.29 L 277.14,536.37 Z" />
<path id="dep-cajamarca" class="region-sierra departamento" data-name="Cajamarca" d="M 77.76,246.85 L 78.69,245.94 L 78.18,242.48 L 79.90,241.00 L 84.97,238.11 L 84.23,235.46 L 81.65,235.25 L 81.10,234.40 L 78.70,234.55 L 76.18,230.12 L 74.88,229.81 L 73.88,227.67 L 74.18,226.69 L 73.09,224.75 L 74.19,221.72 L 76.66,221.50 L 77.79,220.05 L 80.28,218.78 L 79.55,215.97 L 81.29,212.74 L 79.84,210.90 L 74.34,209.76 L 77.35,207.07 L 75.36,203.47 L 74.98,202.01 L 75.87,196.97 L 75.06,194.54 L 79.56,193.91 L 78.65,191.77 L 77.57,186.78 L 76.46,185.82 L 76.83,183.85 L 75.77,182.37 L 78.77,179.56 L 80.53,175.72 L 81.78,174.45 L 86.66,174.66 L 88.86,176.17 L 90.22,172.06 L 93.03,171.86 L 93.15,168.93 L 92.40,168.33 L 93.47,165.63 L 95.03,163.59 L 96.34,162.94 L 99.79,162.46 L 102.22,163.66 L 101.98,166.42 L 103.55,167.71 L 101.93,174.35 L 102.87,175.69 L 101.51,178.04 L 99.98,179.33 L 99.67,181.99 L 100.56,185.07 L 103.41,186.56 L 106.49,189.70 L 106.60,191.64 L 105.05,193.21 L 103.40,197.01 L 100.58,200.52 L 99.57,204.85 L 101.42,209.25 L 103.13,211.45 L 103.95,213.50 L 106.47,213.32 L 109.35,216.63 L 113.02,222.01 L 113.08,223.14 L 115.89,224.68 L 118.21,226.87 L 120.14,229.30 L 121.16,233.38 L 122.92,234.57 L 124.50,239.70 L 125.02,244.91 L 128.65,251.81 L 129.25,253.72 L 131.03,256.84 L 131.66,259.74 L 133.14,260.65 L 134.24,262.34 L 130.57,264.02 L 129.63,266.51 L 125.05,269.81 L 122.10,270.41 L 120.86,268.92 L 116.98,272.63 L 115.27,272.42 L 114.19,270.42 L 113.21,270.53 L 111.33,268.08 L 112.26,266.11 L 112.14,263.53 L 110.16,262.99 L 107.45,265.44 L 102.69,265.22 L 101.80,264.53 L 102.51,261.60 L 101.34,260.46 L 97.85,260.07 L 94.94,261.32 L 93.33,262.95 L 93.00,264.83 L 91.27,266.97 L 90.68,269.06 L 89.57,269.17 L 87.81,267.02 L 86.95,262.55 L 83.83,261.40 L 82.57,259.84 L 80.13,259.36 L 78.82,258.15 L 76.89,257.77 L 79.19,255.61 L 79.74,252.71 L 78.38,251.12 L 77.76,246.85 Z" />
<path id="dep-callao" class="region-costa departamento" data-name="Callao" d="M 154.03,415.59 L 156.21,415.32 L 157.50,418.17 L 156.52,420.11 L 157.75,422.90 L 156.73,424.41 L 155.32,423.98 L 155.97,420.80 L 155.11,417.21 L 154.03,415.59 Z" />
<path id="dep-cusco" class="region-sierra departamento" data-name="Cusco" d="M 322.44,515.13 L 322.80,513.18 L 321.32,511.27 L 324.02,508.72 L 325.25,508.82 L 326.51,507.21 L 327.96,507.38 L 330.37,506.05 L 330.73,504.14 L 332.60,502.90 L 336.38,499.00 L 335.89,498.00 L 337.26,496.42 L 336.86,494.58 L 337.44,492.33 L 337.30,489.44 L 336.51,488.61 L 334.45,484.27 L 331.04,481.54 L 328.60,481.51 L 324.94,479.93 L 324.24,478.05 L 319.18,476.13 L 316.54,475.81 L 315.83,474.79 L 312.66,473.72 L 310.95,471.73 L 307.63,471.37 L 307.35,470.46 L 304.59,470.47 L 303.03,471.75 L 299.88,472.52 L 296.00,471.48 L 293.31,469.83 L 291.13,467.24 L 288.50,461.41 L 287.54,460.55 L 286.50,457.89 L 284.94,456.43 L 284.87,453.22 L 282.47,451.29 L 281.23,448.50 L 277.67,444.13 L 276.85,444.73 L 274.96,443.16 L 274.04,440.28 L 271.90,435.87 L 269.08,433.44 L 268.56,430.14 L 270.58,429.52 L 273.46,430.03 L 274.93,429.36 L 277.25,431.00 L 278.29,431.03 L 280.82,434.92 L 282.48,434.87 L 283.06,431.35 L 286.80,429.35 L 287.64,427.25 L 290.65,426.40 L 289.01,423.94 L 289.36,422.36 L 287.94,421.26 L 287.82,419.66 L 286.05,417.34 L 282.95,415.88 L 283.05,412.28 L 281.85,409.68 L 283.58,407.29 L 287.51,405.18 L 286.44,403.05 L 288.58,399.98 L 291.74,397.42 L 294.38,397.47 L 296.31,396.68 L 298.67,396.81 L 302.62,395.77 L 303.94,393.47 L 304.69,395.77 L 305.75,396.40 L 305.29,398.10 L 307.25,399.06 L 310.92,399.99 L 312.92,398.69 L 314.05,399.89 L 317.50,401.53 L 320.18,401.77 L 322.15,400.10 L 325.76,398.17 L 328.30,397.27 L 330.74,398.61 L 330.43,400.01 L 328.84,401.71 L 328.02,407.41 L 323.97,411.40 L 326.04,414.07 L 325.31,415.52 L 327.42,416.55 L 326.87,417.80 L 327.23,420.50 L 329.12,420.79 L 330.02,421.84 L 329.68,423.53 L 333.08,423.72 L 335.91,424.61 L 336.16,426.64 L 335.52,429.99 L 338.08,430.93 L 340.25,432.88 L 340.14,435.63 L 337.09,437.10 L 336.75,439.59 L 338.16,440.06 L 339.95,442.02 L 340.84,444.63 L 340.05,445.63 L 343.51,447.29 L 346.05,447.80 L 348.32,449.59 L 350.18,447.58 L 353.56,446.22 L 355.28,446.54 L 358.89,450.61 L 360.17,453.04 L 362.32,452.68 L 364.25,454.67 L 366.47,455.77 L 368.82,456.17 L 368.99,460.06 L 370.64,464.96 L 373.54,466.20 L 375.91,462.67 L 377.81,460.65 L 380.61,459.11 L 383.63,460.55 L 387.15,459.86 L 389.73,460.38 L 391.08,462.13 L 394.13,462.37 L 396.84,463.52 L 395.70,465.84 L 396.68,467.79 L 396.43,469.82 L 394.91,470.58 L 394.55,472.49 L 391.64,475.21 L 391.37,476.94 L 388.71,478.16 L 387.36,479.80 L 385.17,480.03 L 384.47,482.72 L 385.76,484.98 L 384.95,485.90 L 383.27,485.37 L 381.03,486.94 L 380.96,489.72 L 379.94,492.81 L 382.29,494.43 L 381.82,496.26 L 379.76,497.83 L 378.59,499.95 L 379.26,501.41 L 378.11,503.40 L 376.34,504.61 L 375.51,506.18 L 376.34,507.52 L 375.12,509.66 L 374.95,512.00 L 370.94,515.32 L 373.10,518.40 L 374.53,517.88 L 375.88,518.74 L 375.22,521.02 L 375.54,525.13 L 374.86,526.04 L 375.85,533.20 L 376.34,534.60 L 375.53,535.78 L 376.70,537.21 L 374.56,539.10 L 373.61,541.26 L 372.44,542.81 L 368.77,541.94 L 369.60,539.81 L 369.09,537.18 L 367.79,535.65 L 369.27,534.33 L 368.56,532.74 L 369.87,531.26 L 367.61,529.55 L 365.71,529.73 L 363.73,531.25 L 361.69,529.81 L 359.61,526.96 L 356.89,526.19 L 357.65,529.10 L 356.72,529.82 L 354.62,529.18 L 354.01,531.44 L 352.28,531.92 L 351.14,530.26 L 346.32,529.40 L 347.59,527.40 L 348.36,524.91 L 346.51,523.37 L 344.57,523.10 L 343.21,519.68 L 342.00,519.64 L 340.76,517.47 L 341.39,515.97 L 339.72,514.13 L 337.79,516.29 L 338.06,520.42 L 337.60,522.64 L 334.69,521.08 L 334.12,519.22 L 330.28,520.13 L 328.02,521.19 L 324.77,520.95 L 322.47,519.11 L 321.92,516.93 L 322.44,515.13 Z M 366.26,508.87 L 368.93,510.29 L 369.41,509.46 L 366.14,507.31 L 366.26,508.87 Z" />
<path id="dep-huancavelica" class="region-sierra departamento" data-name="Huancavelica" d="M 230.03,496.45 L 228.26,493.05 L 226.23,494.44 L 222.91,493.41 L 223.85,492.06 L 220.24,492.45 L 216.65,488.87 L 212.66,488.01 L 212.02,486.30 L 213.40,485.49 L 212.80,484.21 L 213.72,481.22 L 214.83,479.63 L 213.79,478.44 L 215.10,475.22 L 215.51,471.94 L 214.18,469.61 L 212.90,470.99 L 211.25,470.90 L 207.53,472.20 L 206.71,471.39 L 203.36,470.86 L 203.92,468.79 L 206.91,466.89 L 206.92,463.32 L 207.37,461.94 L 206.47,460.61 L 207.32,459.38 L 209.69,458.76 L 210.20,455.52 L 209.42,453.81 L 210.25,452.08 L 213.18,450.51 L 214.02,448.93 L 211.55,446.75 L 212.44,445.56 L 211.44,444.16 L 212.90,443.46 L 214.61,444.39 L 217.22,443.72 L 219.20,440.58 L 222.20,438.06 L 224.45,437.90 L 224.46,435.49 L 227.13,433.64 L 229.58,429.89 L 230.42,427.61 L 229.48,423.73 L 230.46,422.03 L 234.63,422.42 L 237.95,424.11 L 241.12,423.08 L 242.25,423.71 L 244.32,421.47 L 245.57,421.10 L 251.59,422.80 L 252.87,424.92 L 255.27,426.81 L 255.50,427.73 L 253.97,428.39 L 254.11,431.06 L 248.14,431.72 L 247.10,433.31 L 249.87,437.43 L 252.77,437.26 L 253.03,438.86 L 255.69,443.91 L 256.16,445.56 L 255.40,446.65 L 257.53,448.25 L 257.41,450.60 L 256.08,451.00 L 256.15,454.24 L 257.27,454.47 L 258.21,457.65 L 256.77,458.85 L 255.50,457.66 L 254.06,457.79 L 253.29,459.19 L 252.84,462.36 L 251.48,463.43 L 248.41,463.76 L 247.46,463.25 L 244.83,466.39 L 242.88,469.53 L 240.58,468.75 L 236.83,469.40 L 235.80,470.65 L 235.64,473.15 L 237.07,473.68 L 239.30,475.99 L 240.31,478.07 L 239.96,479.53 L 240.91,482.54 L 240.18,485.00 L 240.70,485.97 L 239.79,489.39 L 240.43,491.14 L 239.86,492.49 L 240.35,495.05 L 237.81,494.47 L 234.20,495.22 L 231.10,494.42 L 230.03,496.45 Z" />
<path id="dep-Huánuco" class="region-sierra departamento" data-name="Huánuco" d="M 149.38,299.71 L 151.28,297.51 L 153.42,298.15 L 155.93,296.54 L 157.54,298.05 L 157.44,299.25 L 158.94,300.54 L 163.70,301.11 L 166.17,300.28 L 166.73,299.23 L 171.53,299.79 L 174.13,299.07 L 177.05,298.99 L 179.78,301.10 L 180.57,298.25 L 181.54,296.66 L 184.52,296.17 L 184.85,299.50 L 186.48,301.37 L 186.90,304.10 L 188.21,309.06 L 190.48,307.66 L 192.29,304.19 L 191.77,297.50 L 193.32,292.92 L 196.97,292.40 L 198.36,295.17 L 197.68,296.95 L 197.63,301.88 L 197.15,303.43 L 198.37,306.24 L 199.23,308.51 L 199.38,311.97 L 200.92,315.17 L 200.86,316.97 L 203.34,320.48 L 203.78,322.83 L 206.01,325.78 L 208.18,330.15 L 212.06,330.28 L 214.49,329.47 L 216.00,326.64 L 220.39,326.65 L 222.05,327.10 L 222.77,325.72 L 224.65,324.30 L 224.62,321.81 L 223.66,319.97 L 225.68,319.06 L 226.75,317.58 L 227.02,315.24 L 228.77,313.49 L 230.52,312.85 L 232.90,314.53 L 234.49,313.76 L 234.26,311.22 L 237.48,307.67 L 237.62,304.31 L 239.37,303.28 L 245.79,300.36 L 248.32,301.62 L 249.09,307.41 L 248.85,308.35 L 246.11,309.90 L 244.85,313.36 L 244.59,317.93 L 243.64,319.52 L 244.97,320.38 L 245.02,321.83 L 246.81,326.87 L 243.77,330.08 L 243.67,331.27 L 241.87,332.73 L 241.05,334.65 L 241.60,336.34 L 239.03,340.34 L 239.13,341.86 L 237.52,342.51 L 235.80,342.11 L 234.17,342.96 L 232.16,345.68 L 230.00,345.02 L 228.27,345.95 L 226.42,345.73 L 223.54,343.83 L 221.32,343.75 L 222.29,346.07 L 221.86,346.79 L 218.95,346.81 L 218.01,348.33 L 215.15,350.44 L 212.55,350.78 L 211.06,349.68 L 210.41,352.15 L 208.04,353.01 L 207.03,356.03 L 207.00,358.61 L 204.09,360.22 L 202.14,360.43 L 201.56,361.95 L 199.13,363.86 L 199.10,365.64 L 197.29,368.19 L 194.37,367.69 L 193.61,366.60 L 191.77,366.45 L 188.46,364.52 L 186.75,364.39 L 185.38,365.60 L 184.44,361.41 L 179.54,363.22 L 178.89,364.66 L 173.31,365.94 L 171.54,366.90 L 170.53,368.42 L 168.93,367.68 L 167.56,365.16 L 165.84,364.61 L 164.06,360.98 L 163.73,355.56 L 167.56,354.33 L 166.94,350.98 L 167.37,350.00 L 164.46,344.87 L 164.24,343.29 L 161.77,341.21 L 161.20,342.54 L 158.98,338.96 L 160.88,337.42 L 162.93,334.72 L 162.42,332.72 L 163.03,330.22 L 166.35,325.41 L 167.34,327.67 L 169.38,328.94 L 170.51,325.23 L 170.22,323.56 L 168.26,321.00 L 161.42,318.43 L 159.39,316.19 L 156.79,315.17 L 156.01,313.25 L 154.83,312.32 L 151.92,305.76 L 151.41,303.87 L 150.18,303.32 L 150.39,301.79 L 149.38,299.71 Z" />
<path id="dep-ica" class="region-costa departamento" data-name="Ica" d="M 240.63,530.47 L 238.72,531.93 L 236.76,532.34 L 234.29,534.27 L 233.28,537.55 L 232.00,538.63 L 230.37,542.29 L 229.52,542.59 L 229.19,541.91 L 225.50,539.93 L 226.11,537.83 L 223.91,536.77 L 224.41,535.16 L 222.33,532.94 L 218.98,531.97 L 216.33,527.05 L 214.29,525.87 L 214.20,524.17 L 211.62,522.38 L 207.86,520.63 L 204.13,518.18 L 201.59,517.06 L 199.41,515.05 L 198.86,511.86 L 197.35,510.35 L 197.42,508.42 L 195.03,506.80 L 194.06,505.49 L 191.72,504.34 L 192.50,502.18 L 191.30,499.89 L 188.20,497.13 L 186.06,497.57 L 186.91,492.41 L 186.34,489.01 L 184.64,489.26 L 182.27,488.69 L 183.17,485.18 L 185.85,484.64 L 185.69,486.19 L 187.11,487.17 L 189.37,479.27 L 189.73,476.64 L 189.59,471.65 L 187.69,468.12 L 189.02,467.51 L 190.86,463.56 L 196.00,459.76 L 198.65,456.45 L 203.50,458.88 L 204.92,457.42 L 206.23,458.10 L 208.20,457.55 L 210.20,455.52 L 209.69,458.76 L 207.32,459.38 L 206.47,460.61 L 207.37,461.94 L 206.92,463.32 L 206.91,466.89 L 203.92,468.79 L 203.36,470.86 L 206.71,471.39 L 207.53,472.20 L 211.25,470.90 L 212.90,470.99 L 214.18,469.61 L 215.51,471.94 L 215.10,475.22 L 213.79,478.44 L 214.83,479.63 L 213.72,481.22 L 212.80,484.21 L 213.40,485.49 L 212.02,486.30 L 212.66,488.01 L 216.65,488.87 L 220.24,492.45 L 223.85,492.06 L 222.91,493.41 L 226.23,494.44 L 228.26,493.05 L 230.03,496.45 L 228.90,499.45 L 230.72,501.66 L 228.79,502.87 L 227.21,506.46 L 228.53,507.11 L 228.64,508.94 L 229.68,510.41 L 230.00,513.77 L 233.61,513.20 L 235.88,511.04 L 237.40,513.39 L 237.65,516.77 L 239.19,518.32 L 240.86,518.99 L 241.21,521.53 L 243.08,521.34 L 244.16,523.79 L 244.13,528.60 L 240.63,530.47 Z" />
<path id="dep-Junín" class="region-sierra departamento" data-name="Junín" d="M 247.39,383.42 L 249.70,384.74 L 250.00,386.35 L 251.95,386.66 L 254.51,388.47 L 258.70,387.13 L 260.66,387.18 L 264.58,386.02 L 267.66,386.25 L 268.62,388.95 L 268.63,390.72 L 272.81,391.60 L 272.62,387.80 L 273.07,384.90 L 274.16,383.71 L 274.49,379.46 L 276.53,377.21 L 278.71,378.51 L 281.77,381.10 L 283.56,381.59 L 283.16,385.01 L 284.19,388.15 L 286.34,388.78 L 287.50,394.38 L 287.14,397.12 L 286.28,397.71 L 288.58,399.98 L 286.44,403.05 L 287.51,405.18 L 283.58,407.29 L 281.85,409.68 L 283.05,412.28 L 282.95,415.88 L 286.05,417.34 L 287.82,419.66 L 287.94,421.26 L 289.36,422.36 L 289.01,423.94 L 290.65,426.40 L 287.64,427.25 L 286.80,429.35 L 283.06,431.35 L 282.48,434.87 L 280.82,434.92 L 278.29,431.03 L 277.25,431.00 L 274.93,429.36 L 273.46,430.03 L 270.58,429.52 L 268.56,430.14 L 264.34,431.63 L 263.52,433.34 L 261.16,432.67 L 258.20,430.02 L 256.36,429.69 L 255.50,427.73 L 255.27,426.81 L 252.87,424.92 L 251.59,422.80 L 245.57,421.10 L 244.32,421.47 L 242.25,423.71 L 241.12,423.08 L 237.95,424.11 L 234.63,422.42 L 230.46,422.03 L 229.48,423.73 L 230.42,427.61 L 229.58,429.89 L 227.13,433.64 L 224.46,435.49 L 224.45,437.90 L 222.20,438.06 L 219.20,440.58 L 217.22,443.72 L 214.61,444.39 L 212.90,443.46 L 211.44,444.16 L 211.72,441.44 L 212.99,439.80 L 212.24,437.66 L 212.00,433.44 L 208.42,428.44 L 209.37,425.63 L 207.35,423.12 L 204.80,423.72 L 202.71,422.17 L 199.07,421.07 L 195.92,421.07 L 194.55,419.80 L 194.60,417.84 L 191.54,413.93 L 189.20,412.07 L 189.11,409.66 L 189.72,407.31 L 188.44,406.26 L 186.19,407.26 L 183.15,404.24 L 182.88,402.08 L 181.01,398.63 L 179.37,396.80 L 178.85,393.14 L 177.91,390.56 L 178.89,389.63 L 182.24,389.15 L 185.07,389.71 L 185.43,391.15 L 187.04,391.74 L 187.82,388.63 L 186.47,383.80 L 187.15,383.73 L 187.57,384.14 L 187.57,384.33 L 187.97,385.01 L 190.13,388.04 L 192.34,390.33 L 195.37,389.55 L 196.00,388.10 L 193.89,385.64 L 192.04,385.17 L 193.17,383.20 L 194.84,382.25 L 196.69,380.20 L 199.19,382.38 L 201.49,381.84 L 202.20,382.49 L 204.07,380.32 L 205.99,379.78 L 207.38,380.66 L 211.08,379.84 L 211.65,377.60 L 214.63,377.94 L 215.73,378.97 L 214.97,381.21 L 215.53,383.01 L 217.63,381.43 L 220.81,381.69 L 222.77,380.35 L 223.43,378.30 L 225.32,376.50 L 227.86,377.01 L 229.49,374.74 L 231.55,375.14 L 232.88,377.59 L 233.70,377.10 L 235.95,378.37 L 238.17,378.77 L 239.58,380.55 L 240.70,380.34 L 242.57,381.50 L 244.67,381.82 L 245.92,383.14 L 247.39,383.42 Z" />
<path id="dep-la libertad" class="region-costa departamento" data-name="La Libertad" d="M 101.97,315.14 L 101.73,313.21 L 97.82,308.27 L 98.66,306.10 L 98.43,303.35 L 97.21,301.09 L 91.61,296.41 L 92.99,294.39 L 90.80,291.39 L 89.78,288.54 L 85.16,284.48 L 85.03,283.63 L 78.31,278.48 L 75.87,275.53 L 75.27,273.63 L 72.65,270.96 L 73.74,270.31 L 73.25,268.68 L 69.97,264.26 L 68.27,260.50 L 68.95,259.65 L 67.51,255.31 L 64.62,252.17 L 71.56,244.95 L 73.04,244.06 L 74.97,244.43 L 77.76,246.85 L 78.38,251.12 L 79.74,252.71 L 79.19,255.61 L 76.89,257.77 L 78.82,258.15 L 80.13,259.36 L 82.57,259.84 L 83.83,261.40 L 86.95,262.55 L 87.81,267.02 L 89.57,269.17 L 90.68,269.06 L 91.27,266.97 L 93.00,264.83 L 93.33,262.95 L 94.94,261.32 L 97.85,260.07 L 101.34,260.46 L 102.51,261.60 L 101.80,264.53 L 102.69,265.22 L 107.45,265.44 L 110.16,262.99 L 112.14,263.53 L 112.26,266.11 L 111.33,268.08 L 113.21,270.53 L 114.19,270.42 L 115.27,272.42 L 116.98,272.63 L 120.86,268.92 L 122.10,270.41 L 125.05,269.81 L 129.63,266.51 L 130.57,264.02 L 134.24,262.34 L 133.14,260.65 L 131.66,259.74 L 131.03,256.84 L 129.25,253.72 L 128.65,251.81 L 125.02,244.91 L 127.59,245.48 L 129.27,244.63 L 130.50,245.12 L 133.61,244.70 L 135.24,249.74 L 137.73,251.18 L 139.09,253.65 L 137.62,254.40 L 138.26,257.19 L 138.01,258.50 L 138.92,261.22 L 141.90,263.68 L 141.55,266.40 L 143.41,270.53 L 141.87,272.56 L 143.58,274.17 L 144.90,274.53 L 146.19,277.66 L 147.25,277.88 L 146.17,280.80 L 146.95,283.03 L 150.28,283.19 L 152.20,281.55 L 155.34,282.21 L 156.49,281.97 L 160.02,282.93 L 161.19,284.99 L 164.04,287.08 L 163.37,288.76 L 164.24,291.04 L 163.79,292.54 L 161.55,294.99 L 157.66,295.35 L 155.93,296.54 L 153.42,298.15 L 151.28,297.51 L 149.38,299.71 L 146.42,298.02 L 145.04,295.83 L 144.33,292.87 L 140.81,287.89 L 139.08,286.52 L 137.98,284.81 L 137.60,282.85 L 135.02,283.66 L 131.77,283.46 L 128.65,283.75 L 127.39,288.00 L 124.33,288.96 L 120.86,291.98 L 120.09,294.03 L 120.02,296.11 L 118.80,298.77 L 117.25,300.65 L 118.09,302.17 L 116.21,304.21 L 112.33,304.74 L 108.99,306.97 L 106.50,307.54 L 104.81,308.93 L 103.99,311.25 L 103.87,314.32 L 101.97,315.14 Z" />
<path id="dep-lambayeque" class="region-costa departamento" data-name="Lambayeque" d="M 31.17,223.88 L 40.14,211.06 L 41.88,208.96 L 46.47,207.05 L 48.90,206.90 L 53.76,202.10 L 54.68,196.13 L 55.50,193.77 L 57.03,192.94 L 58.79,194.36 L 58.41,195.47 L 59.54,198.36 L 61.18,198.39 L 63.67,201.65 L 62.95,205.11 L 64.90,205.42 L 66.73,204.80 L 66.91,206.86 L 67.84,208.69 L 71.47,207.83 L 74.34,209.76 L 79.84,210.90 L 81.29,212.74 L 79.55,215.97 L 80.28,218.78 L 77.79,220.05 L 76.66,221.50 L 74.19,221.72 L 73.09,224.75 L 74.18,226.69 L 73.88,227.67 L 74.88,229.81 L 76.18,230.12 L 78.70,234.55 L 81.10,234.40 L 81.65,235.25 L 84.23,235.46 L 84.97,238.11 L 79.90,241.00 L 78.18,242.48 L 78.69,245.94 L 77.76,246.85 L 74.97,244.43 L 73.04,244.06 L 71.56,244.95 L 64.62,252.17 L 64.88,250.33 L 62.86,247.97 L 56.01,241.49 L 55.72,239.87 L 54.07,237.06 L 50.90,234.55 L 47.24,232.10 L 43.26,229.89 L 31.17,223.88 Z" />
<path id="dep-lima" class="region-costa departamento" data-name="Lima" d="M 164.06,360.98 L 165.84,364.61 L 167.56,365.16 L 168.93,367.68 L 170.53,368.42 L 171.36,372.21 L 173.01,374.08 L 172.88,375.53 L 173.80,378.92 L 175.69,381.81 L 176.25,385.30 L 175.71,386.87 L 177.45,387.75 L 178.89,389.63 L 177.91,390.56 L 178.85,393.14 L 179.37,396.80 L 181.01,398.63 L 182.88,402.08 L 183.15,404.24 L 186.19,407.26 L 188.44,406.26 L 189.72,407.31 L 189.11,409.66 L 189.20,412.07 L 191.54,413.93 L 194.60,417.84 L 194.55,419.80 L 195.92,421.07 L 199.07,421.07 L 202.71,422.17 L 204.80,423.72 L 207.35,423.12 L 209.37,425.63 L 208.42,428.44 L 212.00,433.44 L 212.24,437.66 L 212.99,439.80 L 211.72,441.44 L 211.44,444.16 L 212.44,445.56 L 211.55,446.75 L 214.02,448.93 L 213.18,450.51 L 210.25,452.08 L 209.42,453.81 L 210.20,455.52 L 208.20,457.55 L 206.23,458.10 L 204.92,457.42 L 203.50,458.88 L 198.65,456.45 L 196.00,459.76 L 190.86,463.56 L 189.02,467.51 L 187.69,468.12 L 180.92,459.93 L 178.94,457.88 L 178.08,455.07 L 178.36,454.15 L 177.50,451.12 L 173.73,447.74 L 172.41,443.68 L 169.76,440.56 L 167.88,439.51 L 168.75,437.01 L 168.67,435.47 L 166.57,432.77 L 163.02,430.41 L 159.37,428.79 L 159.61,426.33 L 156.73,424.41 L 157.75,422.90 L 156.52,420.11 L 157.50,418.17 L 156.21,415.32 L 154.03,415.59 L 154.71,412.46 L 153.00,408.94 L 150.71,407.13 L 149.83,404.48 L 147.42,402.39 L 142.92,399.74 L 137.75,397.18 L 137.80,394.02 L 139.56,392.88 L 138.09,388.40 L 137.08,386.93 L 137.22,384.61 L 133.92,380.08 L 134.14,379.27 L 131.76,375.94 L 129.06,372.85 L 130.96,371.29 L 133.17,371.44 L 133.13,369.36 L 132.28,368.33 L 133.56,366.47 L 133.82,362.67 L 135.99,362.63 L 139.37,364.72 L 136.29,366.51 L 134.40,371.14 L 137.71,369.88 L 137.83,372.30 L 140.12,371.86 L 139.77,374.08 L 140.10,376.95 L 143.04,377.57 L 145.88,377.00 L 146.60,374.59 L 149.62,371.30 L 151.72,370.51 L 153.89,370.75 L 154.48,367.68 L 156.75,365.52 L 158.16,363.23 L 159.83,362.86 L 160.47,361.34 L 161.95,362.08 L 164.06,360.98 Z" />
<path id="dep-loreto" class="region-selva departamento" data-name="Loreto" d="M 268.46,264.72 L 266.65,262.98 L 266.43,261.69 L 262.91,259.87 L 261.40,258.55 L 258.61,258.03 L 256.56,258.29 L 251.33,256.45 L 249.94,255.29 L 248.72,256.29 L 247.16,260.35 L 245.85,261.23 L 244.90,263.52 L 244.89,265.70 L 247.47,269.43 L 247.00,270.49 L 247.93,272.24 L 249.44,273.25 L 247.51,274.62 L 245.43,278.97 L 241.86,280.41 L 240.31,282.35 L 235.84,283.94 L 232.78,279.99 L 230.95,279.33 L 227.05,280.33 L 225.56,281.66 L 224.48,285.55 L 223.43,286.55 L 221.86,285.49 L 218.71,285.96 L 216.78,286.93 L 215.30,289.94 L 214.18,291.25 L 214.14,293.34 L 216.60,294.89 L 216.40,296.43 L 212.62,297.47 L 210.75,295.56 L 209.00,295.48 L 206.89,296.52 L 206.55,298.20 L 204.33,298.43 L 204.30,300.31 L 202.38,304.00 L 200.29,304.33 L 198.37,306.24 L 197.15,303.43 L 197.63,301.88 L 197.68,296.95 L 198.36,295.17 L 196.97,292.40 L 198.75,292.03 L 199.52,290.02 L 198.53,287.62 L 198.23,284.57 L 199.39,283.60 L 201.97,283.18 L 202.52,280.15 L 201.45,278.31 L 197.61,279.69 L 194.86,273.79 L 192.80,271.34 L 193.17,265.63 L 190.49,263.31 L 188.77,260.16 L 189.43,257.66 L 188.82,256.84 L 190.48,255.35 L 191.30,253.11 L 194.29,251.61 L 196.05,248.70 L 196.04,245.82 L 194.59,243.99 L 196.05,242.21 L 194.61,239.30 L 197.73,238.51 L 202.00,238.82 L 204.70,240.81 L 207.23,241.33 L 208.28,239.85 L 209.52,240.43 L 213.86,238.41 L 214.24,237.76 L 214.28,233.31 L 213.94,228.10 L 212.50,223.03 L 214.63,220.19 L 214.74,217.96 L 213.37,216.61 L 213.11,214.17 L 211.75,210.95 L 210.22,211.63 L 209.68,213.70 L 207.84,214.17 L 206.61,215.67 L 203.04,214.36 L 202.34,215.70 L 198.90,215.61 L 197.66,214.16 L 195.28,214.31 L 191.89,217.02 L 188.44,216.64 L 186.67,214.48 L 185.06,213.84 L 183.11,209.89 L 181.70,209.08 L 176.84,211.60 L 173.57,210.90 L 169.73,210.94 L 169.76,209.20 L 167.21,205.97 L 166.59,201.87 L 164.71,201.97 L 162.09,200.48 L 160.87,199.11 L 159.22,199.38 L 152.43,196.60 L 148.63,196.88 L 147.50,195.69 L 146.12,196.38 L 144.22,196.20 L 142.24,192.07 L 140.78,190.63 L 139.94,191.88 L 136.77,190.07 L 135.86,190.12 L 136.35,187.57 L 135.96,185.08 L 134.30,183.15 L 135.86,181.43 L 133.06,179.09 L 131.35,178.55 L 131.26,176.79 L 133.60,173.98 L 133.57,172.49 L 132.37,170.40 L 132.33,167.35 L 133.15,165.75 L 136.72,162.66 L 137.31,158.76 L 139.79,157.23 L 140.52,153.63 L 139.80,149.37 L 141.08,144.40 L 141.50,141.55 L 141.37,138.55 L 140.38,136.07 L 137.43,132.78 L 138.73,130.27 L 138.68,127.69 L 133.55,121.56 L 132.98,119.78 L 132.91,111.98 L 131.84,104.92 L 155.11,97.25 L 173.86,90.99 L 194.82,74.77 L 211.40,54.33 L 212.89,52.12 L 217.72,35.14 L 218.33,32.67 L 220.64,34.25 L 224.42,34.11 L 224.24,30.42 L 222.41,25.84 L 223.72,22.74 L 224.01,19.37 L 222.22,17.51 L 220.97,17.37 L 218.30,15.26 L 215.62,11.19 L 214.92,8.33 L 213.19,6.36 L 210.34,6.72 L 210.34,3.98 L 212.01,4.61 L 214.08,4.14 L 217.67,5.98 L 221.21,5.46 L 222.87,4.50 L 225.59,1.36 L 229.38,2.96 L 231.54,5.12 L 233.11,5.39 L 234.57,7.65 L 237.57,8.21 L 238.79,6.75 L 240.62,7.90 L 241.77,10.29 L 241.74,11.92 L 243.98,13.13 L 247.33,13.88 L 248.94,16.34 L 252.81,17.73 L 254.77,21.45 L 254.54,22.94 L 258.28,29.76 L 257.92,31.62 L 258.31,34.52 L 259.88,35.39 L 261.84,35.36 L 264.49,36.82 L 266.21,36.71 L 267.32,38.17 L 269.72,39.78 L 270.94,39.35 L 272.96,43.28 L 279.25,43.50 L 281.43,44.32 L 281.68,46.22 L 284.58,50.42 L 284.68,51.46 L 286.48,53.48 L 285.67,56.89 L 284.39,59.32 L 285.72,60.83 L 287.17,61.01 L 288.37,62.90 L 289.88,62.35 L 292.62,62.66 L 296.29,61.98 L 298.14,65.27 L 299.54,65.80 L 299.33,70.82 L 300.20,71.75 L 298.86,76.72 L 297.54,78.16 L 299.32,80.27 L 301.13,81.34 L 301.20,82.75 L 304.88,82.33 L 305.14,84.03 L 307.53,85.50 L 308.86,85.58 L 311.82,83.86 L 314.57,84.55 L 318.02,83.15 L 320.74,85.21 L 322.63,85.07 L 325.74,86.26 L 326.14,87.47 L 328.90,86.75 L 330.06,85.46 L 331.94,85.94 L 334.01,84.87 L 337.54,82.04 L 338.92,83.23 L 340.64,82.82 L 341.93,81.08 L 343.40,81.22 L 345.26,76.96 L 346.46,77.45 L 348.55,75.27 L 349.70,78.26 L 351.28,77.38 L 353.43,78.40 L 358.45,79.80 L 361.75,83.95 L 363.69,83.42 L 364.20,82.34 L 366.75,82.13 L 368.28,83.61 L 370.23,80.29 L 373.10,79.78 L 374.99,77.57 L 377.55,79.20 L 379.31,78.03 L 380.86,80.49 L 382.94,80.56 L 383.88,81.80 L 386.93,82.70 L 388.32,84.24 L 387.92,86.64 L 389.31,87.29 L 393.75,86.26 L 395.10,88.58 L 397.93,87.46 L 398.77,90.57 L 400.93,89.50 L 402.50,90.46 L 402.88,92.88 L 407.03,93.37 L 408.36,94.31 L 408.57,96.93 L 405.71,101.57 L 392.76,121.68 L 385.32,133.17 L 388.61,134.92 L 390.23,134.58 L 392.99,136.18 L 398.35,133.51 L 400.85,134.84 L 401.93,136.69 L 403.64,137.36 L 404.48,139.47 L 406.96,142.56 L 408.57,143.57 L 409.50,145.26 L 412.30,147.84 L 412.51,150.36 L 411.63,152.23 L 410.05,152.95 L 408.18,151.87 L 407.88,150.57 L 405.07,150.28 L 405.22,151.75 L 404.26,153.03 L 401.93,150.54 L 400.77,148.58 L 400.22,146.14 L 395.26,145.15 L 394.06,146.72 L 391.93,145.32 L 390.76,146.54 L 388.71,147.34 L 387.69,145.00 L 385.92,147.10 L 384.03,146.20 L 381.55,147.47 L 381.12,149.26 L 379.83,149.54 L 379.41,151.84 L 376.85,153.75 L 372.35,154.39 L 371.22,153.76 L 368.38,154.52 L 367.39,153.77 L 365.65,155.57 L 362.82,155.98 L 361.15,155.49 L 360.04,156.87 L 357.89,155.82 L 355.86,156.79 L 354.66,158.40 L 353.00,159.10 L 351.86,158.20 L 349.76,158.46 L 348.58,157.46 L 344.11,159.04 L 342.19,160.28 L 339.92,162.59 L 337.95,162.91 L 335.61,165.37 L 332.65,166.64 L 329.67,168.55 L 327.65,168.70 L 325.77,169.87 L 324.47,172.17 L 320.70,173.31 L 317.67,175.65 L 317.62,176.67 L 315.91,177.88 L 313.26,177.60 L 312.10,178.95 L 307.58,181.50 L 308.43,183.92 L 308.31,185.87 L 307.30,187.09 L 306.26,190.01 L 305.07,191.99 L 305.37,194.91 L 304.51,197.23 L 305.04,198.74 L 301.52,203.66 L 298.14,206.17 L 296.95,209.06 L 296.91,210.96 L 295.63,211.59 L 294.64,215.49 L 297.98,222.29 L 299.58,226.51 L 298.25,228.86 L 296.45,230.82 L 291.81,231.81 L 289.57,233.35 L 284.97,234.57 L 283.51,236.16 L 282.03,236.53 L 278.20,240.33 L 276.38,243.84 L 276.36,248.14 L 275.06,249.92 L 277.98,253.94 L 278.75,256.45 L 277.77,257.93 L 274.33,257.83 L 272.80,259.58 L 270.58,258.67 L 269.97,259.79 L 271.02,262.66 L 269.90,264.70 L 268.46,264.72 Z" />
<path id="dep-Madre de Dios" class="region-selva departamento" data-name="Madre de Dios" d="M 396.84,463.52 L 394.13,462.37 L 391.08,462.13 L 389.73,460.38 L 387.15,459.86 L 383.63,460.55 L 380.61,459.11 L 377.81,460.65 L 375.91,462.67 L 373.54,466.20 L 370.64,464.96 L 368.99,460.06 L 368.82,456.17 L 366.47,455.77 L 364.25,454.67 L 362.32,452.68 L 360.17,453.04 L 358.89,450.61 L 355.28,446.54 L 353.56,446.22 L 350.18,447.58 L 348.32,449.59 L 346.05,447.80 L 343.51,447.29 L 340.05,445.63 L 340.84,444.63 L 339.95,442.02 L 338.16,440.06 L 336.75,439.59 L 337.09,437.10 L 340.14,435.63 L 340.25,432.88 L 338.08,430.93 L 335.52,429.99 L 336.16,426.64 L 335.91,424.61 L 333.08,423.72 L 329.68,423.53 L 330.02,421.84 L 329.12,420.79 L 327.23,420.50 L 326.87,417.80 L 327.42,416.55 L 325.31,415.52 L 326.04,414.07 L 323.97,411.40 L 328.02,407.41 L 328.84,401.71 L 330.43,400.01 L 330.74,398.61 L 332.21,395.68 L 332.13,393.70 L 334.95,390.25 L 332.68,388.80 L 332.78,386.85 L 334.63,386.15 L 337.44,386.87 L 338.71,386.12 L 345.15,386.50 L 349.28,386.37 L 356.01,384.81 L 362.24,384.78 L 365.24,381.12 L 365.81,378.91 L 367.10,378.10 L 366.80,375.56 L 367.99,371.72 L 370.45,369.07 L 374.12,368.15 L 376.17,364.75 L 376.22,363.29 L 377.75,362.86 L 379.31,361.34 L 381.52,360.38 L 385.53,356.93 L 385.43,356.12 L 387.48,354.17 L 386.68,352.59 L 386.87,350.38 L 388.79,348.43 L 388.80,368.93 L 388.79,386.49 L 391.86,384.18 L 394.46,386.33 L 395.56,387.83 L 399.72,388.96 L 401.98,388.22 L 403.61,388.38 L 405.67,387.54 L 407.34,386.13 L 409.71,385.70 L 412.36,383.98 L 414.27,383.70 L 418.28,384.01 L 420.02,385.26 L 423.76,384.99 L 425.11,384.44 L 426.32,385.32 L 438.27,404.05 L 442.73,410.43 L 447.56,418.68 L 458.77,439.17 L 457.42,442.13 L 455.99,443.09 L 456.47,444.88 L 455.65,447.09 L 452.33,450.19 L 452.29,451.80 L 451.02,452.73 L 451.00,456.89 L 435.34,463.64 L 423.31,468.75 L 411.64,465.37 L 409.55,464.62 L 396.33,460.78 L 396.84,463.52 Z" />
<path id="dep-moquegua" class="region-costa departamento" data-name="Moquegua" d="M 370.02,626.16 L 367.66,624.30 L 361.71,621.25 L 362.82,619.68 L 362.21,617.99 L 361.69,614.00 L 360.91,610.97 L 357.47,607.31 L 359.25,606.14 L 364.21,600.59 L 362.88,598.06 L 361.26,598.04 L 359.26,592.56 L 359.13,590.43 L 359.80,588.18 L 361.81,587.45 L 363.30,588.59 L 364.68,587.69 L 365.03,583.80 L 366.26,581.49 L 366.23,578.57 L 370.02,578.85 L 372.20,578.27 L 375.27,579.58 L 376.68,578.36 L 375.88,576.64 L 375.49,573.05 L 376.54,573.00 L 380.22,570.65 L 379.46,565.49 L 380.12,564.14 L 381.69,564.06 L 381.42,561.41 L 383.26,562.75 L 385.52,563.28 L 387.74,561.80 L 390.71,561.75 L 391.93,563.10 L 396.08,564.84 L 396.36,567.40 L 397.89,569.49 L 398.62,573.50 L 397.07,575.69 L 398.81,576.62 L 399.96,578.98 L 402.55,579.94 L 404.44,581.86 L 404.69,583.58 L 407.58,585.18 L 409.04,584.23 L 410.66,585.23 L 410.87,587.80 L 408.90,588.99 L 407.46,590.70 L 407.35,593.46 L 405.48,595.14 L 401.89,595.63 L 401.46,593.86 L 403.37,590.56 L 399.73,589.32 L 394.94,591.72 L 394.12,595.39 L 394.66,600.15 L 393.15,600.51 L 391.86,603.21 L 388.93,604.83 L 386.28,605.20 L 385.15,606.91 L 383.84,610.67 L 384.44,611.39 L 379.30,616.81 L 378.13,621.45 L 375.25,621.16 L 371.32,623.83 L 370.02,626.16 Z" />
<path id="dep-pasco" class="region-sierra departamento" data-name="Pasco" d="M 186.47,383.80 L 187.82,388.63 L 187.04,391.74 L 185.43,391.15 L 185.07,389.71 L 182.24,389.15 L 178.89,389.63 L 177.45,387.75 L 175.71,386.87 L 176.25,385.30 L 175.69,381.81 L 173.80,378.92 L 172.88,375.53 L 173.01,374.08 L 171.36,372.21 L 170.53,368.42 L 171.54,366.90 L 173.31,365.94 L 178.89,364.66 L 179.54,363.22 L 184.44,361.41 L 185.38,365.60 L 186.75,364.39 L 188.46,364.52 L 191.77,366.45 L 193.61,366.60 L 194.37,367.69 L 197.29,368.19 L 199.10,365.64 L 199.13,363.86 L 201.56,361.95 L 202.14,360.43 L 204.09,360.22 L 207.00,358.61 L 207.03,356.03 L 208.04,353.01 L 210.41,352.15 L 211.06,349.68 L 212.55,350.78 L 215.15,350.44 L 218.01,348.33 L 218.95,346.81 L 221.86,346.79 L 222.29,346.07 L 221.32,343.75 L 223.54,343.83 L 226.42,345.73 L 228.27,345.95 L 230.00,345.02 L 232.16,345.68 L 234.17,342.96 L 235.80,342.11 L 237.52,342.51 L 239.13,341.86 L 239.03,340.34 L 241.60,336.34 L 241.05,334.65 L 241.87,332.73 L 243.67,331.27 L 246.98,333.63 L 247.30,336.26 L 250.12,337.06 L 250.52,340.89 L 251.87,343.62 L 251.78,346.79 L 253.05,347.91 L 252.71,350.98 L 253.55,353.83 L 254.75,355.32 L 256.15,355.20 L 257.00,357.10 L 259.58,357.85 L 259.84,361.16 L 257.97,364.49 L 258.74,367.25 L 260.05,367.24 L 261.36,369.06 L 263.12,372.60 L 261.97,373.78 L 259.65,373.68 L 257.82,375.06 L 256.52,376.88 L 254.49,377.99 L 254.08,379.87 L 250.54,380.74 L 249.64,382.28 L 247.39,383.42 L 245.92,383.14 L 244.67,381.82 L 242.57,381.50 L 240.70,380.34 L 239.58,380.55 L 238.17,378.77 L 235.95,378.37 L 233.70,377.10 L 232.88,377.59 L 231.55,375.14 L 229.49,374.74 L 227.86,377.01 L 225.32,376.50 L 223.43,378.30 L 222.77,380.35 L 220.81,381.69 L 217.63,381.43 L 215.53,383.01 L 214.97,381.21 L 215.73,378.97 L 214.63,377.94 L 211.65,377.60 L 211.08,379.84 L 207.38,380.66 L 205.99,379.78 L 204.07,380.32 L 202.20,382.49 L 201.49,381.84 L 199.19,382.38 L 196.69,380.20 L 194.84,382.25 L 193.17,383.20 L 192.04,385.17 L 189.61,385.09 L 188.94,383.64 L 188.44,383.50 L 187.53,383.84 L 187.18,383.68 L 186.94,383.68 L 186.47,383.80 Z" />
<path id="dep-piura" class="region-costa departamento" data-name="Piura" d="M 81.78,174.45 L 80.53,175.72 L 78.77,179.56 L 75.77,182.37 L 76.83,183.85 L 76.46,185.82 L 77.57,186.78 L 78.65,191.77 L 79.56,193.91 L 75.06,194.54 L 75.87,196.97 L 74.98,202.01 L 75.36,203.47 L 77.35,207.07 L 74.34,209.76 L 71.47,207.83 L 67.84,208.69 L 66.91,206.86 L 66.73,204.80 L 64.90,205.42 L 62.95,205.11 L 63.67,201.65 L 61.18,198.39 L 59.54,198.36 L 58.41,195.47 L 58.79,194.36 L 57.03,192.94 L 55.50,193.77 L 54.68,196.13 L 53.76,202.10 L 48.90,206.90 L 46.47,207.05 L 41.88,208.96 L 40.14,211.06 L 31.17,223.88 L 25.07,220.96 L 20.96,217.51 L 14.59,213.69 L 12.53,210.15 L 12.53,206.92 L 14.38,205.13 L 15.41,203.28 L 17.08,204.86 L 19.89,205.39 L 21.73,204.13 L 22.81,202.02 L 23.12,198.00 L 21.51,193.65 L 19.34,190.54 L 15.96,187.31 L 13.99,186.73 L 12.92,184.94 L 10.91,183.13 L 13.10,178.14 L 14.62,178.55 L 15.71,177.06 L 14.77,174.53 L 11.55,170.59 L 6.14,164.50 L 6.80,163.79 L 7.77,158.99 L 7.01,157.52 L 8.32,155.79 L 8.95,153.01 L 8.55,151.46 L 9.39,149.35 L 11.84,147.94 L 14.26,145.07 L 16.38,143.62 L 18.88,145.01 L 19.47,146.63 L 22.04,147.31 L 24.88,146.72 L 28.56,147.14 L 31.31,148.68 L 33.54,146.68 L 34.84,144.31 L 36.17,143.46 L 37.52,144.94 L 38.06,147.42 L 40.31,147.48 L 41.83,148.38 L 40.46,150.45 L 38.33,152.37 L 37.37,154.09 L 37.90,156.58 L 39.66,157.62 L 43.21,155.81 L 46.61,152.71 L 47.19,151.21 L 49.85,150.76 L 53.87,153.89 L 56.40,154.09 L 58.17,155.05 L 59.29,156.97 L 60.93,157.86 L 63.97,157.11 L 65.88,155.79 L 66.85,155.97 L 69.16,158.61 L 71.50,158.85 L 72.16,160.67 L 71.85,162.53 L 75.27,169.76 L 77.83,171.70 L 79.89,174.57 L 81.78,174.45 Z" />
<path id="dep-puno" class="region-sierra departamento" data-name="Puno" d="M 449.34,576.35 L 449.34,570.36 L 453.06,573.40 L 453.06,574.39 L 449.34,576.35 Z M 423.52,607.40 L 421.66,606.95 L 420.30,607.66 L 418.28,605.60 L 416.02,605.86 L 409.30,601.79 L 409.04,599.28 L 407.16,597.51 L 405.48,595.14 L 407.35,593.46 L 407.46,590.70 L 408.90,588.99 L 410.87,587.80 L 410.66,585.23 L 409.04,584.23 L 407.58,585.18 L 404.69,583.58 L 404.44,581.86 L 402.55,579.94 L 399.96,578.98 L 398.81,576.62 L 397.07,575.69 L 398.62,573.50 L 397.89,569.49 L 396.36,567.40 L 396.08,564.84 L 391.93,563.10 L 390.71,561.75 L 387.74,561.80 L 385.52,563.28 L 383.26,562.75 L 381.42,561.41 L 380.60,559.47 L 377.28,554.60 L 378.57,552.05 L 377.93,549.65 L 374.71,546.84 L 374.46,544.21 L 375.22,543.01 L 373.61,541.26 L 374.56,539.10 L 376.70,537.21 L 375.53,535.78 L 376.34,534.60 L 375.85,533.20 L 374.86,526.04 L 375.54,525.13 L 375.22,521.02 L 375.88,518.74 L 374.53,517.88 L 373.10,518.40 L 370.94,515.32 L 374.95,512.00 L 375.12,509.66 L 376.34,507.52 L 375.51,506.18 L 376.34,504.61 L 378.11,503.40 L 379.26,501.41 L 378.59,499.95 L 379.76,497.83 L 381.82,496.26 L 382.29,494.43 L 379.94,492.81 L 380.96,489.72 L 381.03,486.94 L 383.27,485.37 L 384.95,485.90 L 385.76,484.98 L 384.47,482.72 L 385.17,480.03 L 387.36,479.80 L 388.71,478.16 L 391.37,476.94 L 391.64,475.21 L 394.55,472.49 L 394.91,470.58 L 396.43,469.82 L 396.68,467.79 L 395.70,465.84 L 396.84,463.52 L 396.33,460.78 L 409.55,464.62 L 411.64,465.37 L 423.31,468.75 L 435.34,463.64 L 451.00,456.89 L 451.63,458.89 L 450.91,460.82 L 451.95,465.40 L 449.38,473.85 L 446.68,479.59 L 444.25,479.84 L 444.07,480.94 L 447.25,483.39 L 447.12,484.28 L 449.37,485.34 L 448.16,487.64 L 447.07,488.17 L 447.21,491.12 L 448.66,492.79 L 450.16,493.34 L 451.57,497.61 L 452.58,499.60 L 447.77,499.62 L 445.88,502.95 L 446.95,505.06 L 445.32,506.86 L 443.43,507.77 L 441.41,509.93 L 441.07,512.28 L 438.57,512.33 L 438.23,514.96 L 437.22,515.89 L 438.38,517.92 L 435.67,518.78 L 433.79,520.06 L 434.15,522.91 L 433.51,525.24 L 435.74,528.77 L 436.24,530.36 L 438.01,531.25 L 441.73,535.25 L 438.73,538.17 L 437.55,540.06 L 437.37,543.51 L 436.07,542.38 L 434.60,545.93 L 430.89,543.97 L 429.40,542.04 L 426.11,539.48 L 425.13,540.00 L 423.50,538.28 L 423.39,536.98 L 421.46,535.24 L 420.42,535.43 L 418.83,537.88 L 417.28,537.13 L 414.49,537.40 L 414.20,539.53 L 412.75,540.96 L 413.50,543.01 L 415.69,546.60 L 418.90,550.16 L 419.62,552.64 L 418.08,552.51 L 416.23,551.09 L 416.25,549.54 L 414.54,547.88 L 412.02,551.61 L 410.09,551.30 L 409.49,552.43 L 409.85,554.67 L 412.02,556.92 L 414.89,558.30 L 417.07,554.62 L 419.02,556.25 L 418.95,558.47 L 420.93,559.24 L 422.44,560.64 L 426.33,560.74 L 430.30,561.94 L 431.32,563.81 L 428.45,567.43 L 428.77,569.47 L 431.20,568.44 L 433.64,570.95 L 437.82,571.66 L 441.24,571.06 L 444.46,569.10 L 447.26,571.19 L 444.62,572.09 L 445.64,573.82 L 445.60,576.35 L 443.43,578.42 L 443.41,579.63 L 445.11,581.83 L 445.31,583.45 L 446.57,585.23 L 444.81,586.35 L 440.36,587.72 L 438.60,591.54 L 435.55,594.34 L 434.16,596.84 L 432.33,598.14 L 433.08,599.87 L 430.39,600.73 L 428.15,602.43 L 426.54,602.89 L 423.52,607.40 Z M 414.72,534.30 L 413.12,532.43 L 412.26,533.09 L 409.99,532.42 L 409.11,530.92 L 406.57,532.93 L 408.55,533.84 L 412.44,534.75 L 414.72,534.30 Z" />
<path id="dep-San Martín" class="region-selva departamento" data-name="San Martín" d="M 196.97,292.40 L 193.32,292.92 L 191.77,297.50 L 192.29,304.19 L 190.48,307.66 L 188.21,309.06 L 186.90,304.10 L 186.48,301.37 L 184.85,299.50 L 184.52,296.17 L 181.54,296.66 L 180.57,298.25 L 179.78,301.10 L 177.05,298.99 L 174.13,299.07 L 171.53,299.79 L 166.73,299.23 L 166.17,300.28 L 163.70,301.11 L 158.94,300.54 L 157.44,299.25 L 157.54,298.05 L 155.93,296.54 L 157.66,295.35 L 161.55,294.99 L 163.79,292.54 L 164.24,291.04 L 163.37,288.76 L 164.04,287.08 L 161.19,284.99 L 160.02,282.93 L 156.49,281.97 L 155.34,282.21 L 152.20,281.55 L 150.28,283.19 L 146.95,283.03 L 146.17,280.80 L 147.25,277.88 L 146.19,277.66 L 144.90,274.53 L 143.58,274.17 L 141.87,272.56 L 143.41,270.53 L 141.55,266.40 L 141.90,263.68 L 138.92,261.22 L 138.01,258.50 L 138.26,257.19 L 137.62,254.40 L 139.09,253.65 L 137.73,251.18 L 135.24,249.74 L 133.61,244.70 L 134.88,242.20 L 133.51,239.19 L 134.05,237.23 L 134.09,234.18 L 135.95,234.65 L 138.85,232.32 L 141.28,234.60 L 147.08,235.32 L 145.14,232.08 L 146.65,231.99 L 148.74,229.16 L 149.06,227.26 L 150.96,225.09 L 150.48,222.44 L 151.43,222.32 L 152.81,224.20 L 154.58,224.20 L 155.97,221.44 L 153.57,218.93 L 152.75,215.97 L 150.66,215.79 L 148.34,214.83 L 146.59,212.19 L 145.20,212.93 L 143.62,210.84 L 141.65,213.04 L 139.52,211.14 L 136.81,210.12 L 137.43,208.54 L 136.50,205.88 L 133.43,204.48 L 133.08,199.75 L 134.40,196.94 L 133.37,194.61 L 133.27,191.07 L 134.18,189.96 L 135.86,190.12 L 136.77,190.07 L 139.94,191.88 L 140.78,190.63 L 142.24,192.07 L 144.22,196.20 L 146.12,196.38 L 147.50,195.69 L 148.63,196.88 L 152.43,196.60 L 159.22,199.38 L 160.87,199.11 L 162.09,200.48 L 164.71,201.97 L 166.59,201.87 L 167.21,205.97 L 169.76,209.20 L 169.73,210.94 L 173.57,210.90 L 176.84,211.60 L 181.70,209.08 L 183.11,209.89 L 185.06,213.84 L 186.67,214.48 L 188.44,216.64 L 191.89,217.02 L 195.28,214.31 L 197.66,214.16 L 198.90,215.61 L 202.34,215.70 L 203.04,214.36 L 206.61,215.67 L 207.84,214.17 L 209.68,213.70 L 210.22,211.63 L 211.75,210.95 L 213.11,214.17 L 213.37,216.61 L 214.74,217.96 L 214.63,220.19 L 212.50,223.03 L 213.94,228.10 L 214.28,233.31 L 214.24,237.76 L 213.86,238.41 L 209.52,240.43 L 208.28,239.85 L 207.23,241.33 L 204.70,240.81 L 202.00,238.82 L 197.73,238.51 L 194.61,239.30 L 196.05,242.21 L 194.59,243.99 L 196.04,245.82 L 196.05,248.70 L 194.29,251.61 L 191.30,253.11 L 190.48,255.35 L 188.82,256.84 L 189.43,257.66 L 188.77,260.16 L 190.49,263.31 L 193.17,265.63 L 192.80,271.34 L 194.86,273.79 L 197.61,279.69 L 201.45,278.31 L 202.52,280.15 L 201.97,283.18 L 199.39,283.60 L 198.23,284.57 L 198.53,287.62 L 199.52,290.02 L 198.75,292.03 L 196.97,292.40 Z" />
<path id="dep-tacna" class="region-costa departamento" data-name="Tacna" d="M 423.52,607.40 L 425.89,607.58 L 429.74,610.42 L 429.70,615.01 L 422.66,620.48 L 418.00,620.00 L 417.10,621.41 L 417.86,624.08 L 418.01,627.59 L 419.74,630.46 L 419.59,631.93 L 417.39,636.45 L 415.92,638.24 L 412.12,641.67 L 408.90,641.88 L 405.37,643.62 L 400.47,643.26 L 397.26,644.76 L 393.53,642.04 L 386.48,638.12 L 381.67,633.85 L 379.31,632.95 L 378.73,631.15 L 374.61,628.10 L 371.54,627.78 L 370.02,626.16 L 371.32,623.83 L 375.25,621.16 L 378.13,621.45 L 379.30,616.81 L 384.44,611.39 L 383.84,610.67 L 385.15,606.91 L 386.28,605.20 L 388.93,604.83 L 391.86,603.21 L 393.15,600.51 L 394.66,600.15 L 394.12,595.39 L 394.94,591.72 L 399.73,589.32 L 403.37,590.56 L 401.46,593.86 L 401.89,595.63 L 405.48,595.14 L 407.16,597.51 L 409.04,599.28 L 409.30,601.79 L 416.02,605.86 L 418.28,605.60 L 420.30,607.66 L 421.66,606.95 L 423.52,607.40 Z" />
<path id="dep-tumbes" class="region-costa departamento" data-name="Tumbes" d="M 36.17,143.46 L 34.84,144.31 L 33.54,146.68 L 31.31,148.68 L 28.56,147.14 L 24.88,146.72 L 22.04,147.31 L 19.47,146.63 L 18.88,145.01 L 16.38,143.62 L 18.31,140.04 L 19.41,139.00 L 23.80,136.18 L 25.19,132.12 L 26.66,130.64 L 32.75,127.76 L 34.11,126.13 L 35.54,123.29 L 38.09,122.62 L 39.97,122.72 L 43.13,119.77 L 45.70,121.00 L 45.01,122.19 L 46.21,124.19 L 46.83,126.41 L 47.11,131.36 L 47.84,133.60 L 47.91,135.97 L 48.56,137.48 L 44.99,139.00 L 42.93,141.15 L 40.62,139.95 L 38.21,140.17 L 36.17,143.46 Z" />
<path id="dep-ucayali" class="region-selva departamento" data-name="Ucayali" d="M 388.79,348.43 L 386.87,350.38 L 386.68,352.59 L 387.48,354.17 L 385.43,356.12 L 385.53,356.93 L 381.52,360.38 L 379.31,361.34 L 377.75,362.86 L 376.22,363.29 L 376.17,364.75 L 374.12,368.15 L 370.45,369.07 L 367.99,371.72 L 366.80,375.56 L 367.10,378.10 L 365.81,378.91 L 365.24,381.12 L 362.24,384.78 L 356.01,384.81 L 349.28,386.37 L 345.15,386.50 L 338.71,386.12 L 337.44,386.87 L 334.63,386.15 L 332.78,386.85 L 332.68,388.80 L 334.95,390.25 L 332.13,393.70 L 332.21,395.68 L 330.74,398.61 L 328.30,397.27 L 325.76,398.17 L 322.15,400.10 L 320.18,401.77 L 317.50,401.53 L 314.05,399.89 L 312.92,398.69 L 310.92,399.99 L 307.25,399.06 L 305.29,398.10 L 305.75,396.40 L 304.69,395.77 L 303.94,393.47 L 302.62,395.77 L 298.67,396.81 L 296.31,396.68 L 294.38,397.47 L 291.74,397.42 L 288.58,399.98 L 286.28,397.71 L 287.14,397.12 L 287.50,394.38 L 286.34,388.78 L 284.19,388.15 L 283.16,385.01 L 283.56,381.59 L 281.77,381.10 L 278.71,378.51 L 276.53,377.21 L 274.49,379.46 L 274.16,383.71 L 273.07,384.90 L 272.62,387.80 L 272.81,391.60 L 268.63,390.72 L 268.62,388.95 L 267.66,386.25 L 264.58,386.02 L 260.66,387.18 L 258.70,387.13 L 254.51,388.47 L 251.95,386.66 L 250.00,386.35 L 249.70,384.74 L 247.39,383.42 L 249.64,382.28 L 250.54,380.74 L 254.08,379.87 L 254.49,377.99 L 256.52,376.88 L 257.82,375.06 L 259.65,373.68 L 261.97,373.78 L 263.12,372.60 L 261.36,369.06 L 260.05,367.24 L 258.74,367.25 L 257.97,364.49 L 259.84,361.16 L 259.58,357.85 L 257.00,357.10 L 256.15,355.20 L 254.75,355.32 L 253.55,353.83 L 252.71,350.98 L 253.05,347.91 L 251.78,346.79 L 251.87,343.62 L 250.52,340.89 L 250.12,337.06 L 247.30,336.26 L 246.98,333.63 L 243.67,331.27 L 243.77,330.08 L 246.81,326.87 L 245.02,321.83 L 244.97,320.38 L 243.64,319.52 L 244.59,317.93 L 244.85,313.36 L 246.11,309.90 L 248.85,308.35 L 249.09,307.41 L 248.32,301.62 L 245.79,300.36 L 239.37,303.28 L 237.62,304.31 L 237.48,307.67 L 234.26,311.22 L 234.49,313.76 L 232.90,314.53 L 230.52,312.85 L 228.77,313.49 L 227.02,315.24 L 226.75,317.58 L 225.68,319.06 L 223.66,319.97 L 224.62,321.81 L 224.65,324.30 L 222.77,325.72 L 222.05,327.10 L 220.39,326.65 L 216.00,326.64 L 214.49,329.47 L 212.06,330.28 L 208.18,330.15 L 206.01,325.78 L 203.78,322.83 L 203.34,320.48 L 200.86,316.97 L 200.92,315.17 L 199.38,311.97 L 199.23,308.51 L 198.37,306.24 L 200.29,304.33 L 202.38,304.00 L 204.30,300.31 L 204.33,298.43 L 206.55,298.20 L 206.89,296.52 L 209.00,295.48 L 210.75,295.56 L 212.62,297.47 L 216.40,296.43 L 216.60,294.89 L 214.14,293.34 L 214.18,291.25 L 215.30,289.94 L 216.78,286.93 L 218.71,285.96 L 221.86,285.49 L 223.43,286.55 L 224.48,285.55 L 225.56,281.66 L 227.05,280.33 L 230.95,279.33 L 232.78,279.99 L 235.84,283.94 L 240.31,282.35 L 241.86,280.41 L 245.43,278.97 L 247.51,274.62 L 249.44,273.25 L 247.93,272.24 L 247.00,270.49 L 247.47,269.43 L 244.89,265.70 L 244.90,263.52 L 245.85,261.23 L 247.16,260.35 L 248.72,256.29 L 249.94,255.29 L 251.33,256.45 L 256.56,258.29 L 258.61,258.03 L 261.40,258.55 L 262.91,259.87 L 266.43,261.69 L 266.65,262.98 L 268.46,264.72 L 271.81,267.14 L 271.42,268.40 L 273.67,269.51 L 274.88,271.03 L 278.07,272.05 L 279.42,274.05 L 279.35,276.09 L 276.18,277.93 L 278.35,279.74 L 279.68,281.51 L 280.70,281.31 L 282.69,285.54 L 282.30,286.91 L 283.46,289.71 L 284.79,290.72 L 284.18,293.29 L 290.25,297.66 L 291.75,297.80 L 291.28,302.26 L 292.15,302.54 L 294.60,305.35 L 297.60,305.62 L 299.49,308.68 L 299.57,309.87 L 302.25,313.27 L 303.53,313.30 L 305.43,317.23 L 305.71,319.49 L 304.87,321.27 L 301.28,324.22 L 297.99,328.75 L 296.83,328.98 L 296.41,330.67 L 313.68,330.70 L 320.34,333.16 L 324.75,332.99 L 329.24,335.27 L 328.99,337.40 L 330.50,339.31 L 330.04,341.24 L 331.61,343.58 L 333.88,344.23 L 333.50,345.42 L 333.90,348.04 L 333.08,348.90 L 332.84,351.34 L 348.72,351.34 L 361.61,351.36 L 362.76,350.18 L 364.38,351.08 L 368.14,349.26 L 369.37,346.86 L 373.18,344.88 L 375.06,344.96 L 375.93,342.94 L 377.70,342.27 L 379.71,339.57 L 382.17,338.77 L 383.94,336.22 L 387.22,334.28 L 390.62,331.34 L 392.37,333.53 L 391.45,335.02 L 389.58,335.49 L 389.35,337.55 L 391.03,339.75 L 391.85,341.72 L 391.55,343.12 L 388.85,344.51 L 388.79,348.43 Z" />
</svg>